<svg xmlns="http://www.w3.org/2000/svg" width="1200" height="1800" viewBox="0 0 1200 1800">
  <defs>
    <linearGradient id="strip" x1="0" y1="0" x2="0" y2="1">
      <stop offset="0" stop-color="#0d2a1b"/>
      <stop offset="1" stop-color="#071a10"/>
    </linearGradient>
  </defs>
  <path fill="#0e3b26" fill-rule="evenodd" d="M0 0h1200v1800H0zM320 100h560v330H320zM320 450h560v330H320zM320 800h560v330H320zM320 1150h560v330H320z"/>
  <rect x="270" y="45" width="660" height="1710" rx="24" fill="none" stroke="#f5b914" stroke-width="5"/>
  <path fill="url(#strip)" fill-rule="evenodd" d="M270 45h660v1710H270zM320 100h560v330H320zM320 450h560v330H320zM320 800h560v330H320zM320 1150h560v330H320z"/>
  <rect x="320" y="62" width="300" height="28" rx="14" fill="#f5b914"/>
  <text x="335" y="83" fill="#071a10" font-family="Arial, sans-serif" font-size="17" font-weight="900" letter-spacing="3">MATCHDAY CAMERA</text>
  <text x="600" y="1570" fill="#f5b914" font-family="Arial, sans-serif" font-size="66" font-weight="900" text-anchor="middle">FIFA</text>
  <text x="600" y="1615" fill="#f1f5f2" font-family="Arial, sans-serif" font-size="27" font-weight="800" text-anchor="middle">WORLD CUP 2026</text>
  <text x="600" y="1660" fill="#8fa99a" font-family="Arial, sans-serif" font-size="18" font-weight="700" letter-spacing="4" text-anchor="middle">FOUR CUT PHOTO STRIP</text>
</svg>
